<mxfile host="app.diagrams.net" modified="2022-04-17T05:47:35.657Z" agent="5.0 (X11; Linux x86_64) AppleWebKit/537.36 (KHTML, like Gecko) Chrome/99.0.4844.82 Safari/537.36" etag="0dKu-krs2HyY4hn2lstj" version="17.4.5" type="github">
  <diagram id="tGM0PoBINYn4neO8G_zT" name="第 1 页">
    <mxGraphModel dx="1036" dy="557" grid="0" gridSize="10" guides="1" tooltips="1" connect="1" arrows="1" fold="1" page="1" pageScale="1" pageWidth="1169" pageHeight="827" math="0" shadow="0">
      <root>
        <mxCell id="0" />
        <mxCell id="1" parent="0" />
        <mxCell id="GBrsPW4wWktVcQGoqvxC-1" value="&lt;font style=&quot;font-size: 11px ; line-height: 1.2&quot;&gt;:系统&lt;/font&gt;" style="shape=umlLifeline;perimeter=lifelinePerimeter;whiteSpace=wrap;html=1;container=1;collapsible=0;recursiveResize=0;outlineConnect=0;rounded=1;shadow=0;comic=0;labelBackgroundColor=none;strokeWidth=1;fontFamily=Verdana;fontSize=12;align=center;" vertex="1" parent="1">
          <mxGeometry x="344" y="207" width="100" height="384" as="geometry" />
        </mxCell>
        <mxCell id="GBrsPW4wWktVcQGoqvxC-2" value="" style="html=1;points=[];perimeter=orthogonalPerimeter;rounded=0;shadow=0;comic=0;labelBackgroundColor=none;strokeWidth=1;fontFamily=Verdana;fontSize=12;align=center;" vertex="1" parent="GBrsPW4wWktVcQGoqvxC-1">
          <mxGeometry x="45" y="100" width="10" height="203" as="geometry" />
        </mxCell>
        <mxCell id="GBrsPW4wWktVcQGoqvxC-3" value=":审核员" style="shape=umlLifeline;perimeter=lifelinePerimeter;whiteSpace=wrap;html=1;container=1;collapsible=0;recursiveResize=0;outlineConnect=0;rounded=1;shadow=0;comic=0;labelBackgroundColor=none;strokeWidth=1;fontFamily=Verdana;fontSize=12;align=center;" vertex="1" parent="1">
          <mxGeometry x="504" y="207" width="100" height="274" as="geometry" />
        </mxCell>
        <mxCell id="GBrsPW4wWktVcQGoqvxC-4" value="" style="html=1;points=[];perimeter=orthogonalPerimeter;rounded=0;shadow=0;comic=0;labelBackgroundColor=none;strokeWidth=1;fontFamily=Verdana;fontSize=12;align=center;" vertex="1" parent="GBrsPW4wWktVcQGoqvxC-3">
          <mxGeometry x="45" y="174" width="10" height="72" as="geometry" />
        </mxCell>
        <mxCell id="GBrsPW4wWktVcQGoqvxC-5" value=":DataBase" style="shape=umlLifeline;perimeter=lifelinePerimeter;whiteSpace=wrap;html=1;container=1;collapsible=0;recursiveResize=0;outlineConnect=0;rounded=1;shadow=0;comic=0;labelBackgroundColor=none;strokeWidth=1;fontFamily=Verdana;fontSize=12;align=center;" vertex="1" parent="1">
          <mxGeometry x="644" y="207" width="100" height="398" as="geometry" />
        </mxCell>
        <mxCell id="GBrsPW4wWktVcQGoqvxC-6" value="" style="html=1;points=[];perimeter=orthogonalPerimeter;rounded=0;shadow=0;comic=0;labelBackgroundColor=none;strokeWidth=1;fontFamily=Verdana;fontSize=12;align=center;" vertex="1" parent="GBrsPW4wWktVcQGoqvxC-5">
          <mxGeometry x="45" y="120" width="10" height="227" as="geometry" />
        </mxCell>
        <mxCell id="GBrsPW4wWktVcQGoqvxC-7" value=":用户" style="shape=umlLifeline;perimeter=lifelinePerimeter;whiteSpace=wrap;html=1;container=1;collapsible=0;recursiveResize=0;outlineConnect=0;rounded=1;shadow=0;comic=0;labelBackgroundColor=none;strokeWidth=1;fontFamily=Verdana;fontSize=12;align=center;" vertex="1" parent="1">
          <mxGeometry x="177" y="207" width="100" height="387" as="geometry" />
        </mxCell>
        <mxCell id="GBrsPW4wWktVcQGoqvxC-8" value="" style="html=1;points=[];perimeter=orthogonalPerimeter;rounded=0;shadow=0;comic=0;labelBackgroundColor=none;strokeWidth=1;fontFamily=Verdana;fontSize=12;align=center;" vertex="1" parent="GBrsPW4wWktVcQGoqvxC-7">
          <mxGeometry x="45" y="100" width="10" height="58" as="geometry" />
        </mxCell>
        <mxCell id="GBrsPW4wWktVcQGoqvxC-9" value="" style="html=1;verticalAlign=bottom;endArrow=block;entryX=0;entryY=0;labelBackgroundColor=none;fontFamily=Verdana;fontSize=12;edgeStyle=elbowEdgeStyle;elbow=vertical;" edge="1" parent="1" source="GBrsPW4wWktVcQGoqvxC-8" target="GBrsPW4wWktVcQGoqvxC-2">
          <mxGeometry x="-0.0308" y="-57" relative="1" as="geometry">
            <mxPoint x="324" y="317" as="sourcePoint" />
            <mxPoint as="offset" />
          </mxGeometry>
        </mxCell>
        <mxCell id="GBrsPW4wWktVcQGoqvxC-10" value="&lt;font face=&quot;verdana&quot;&gt;&lt;span style=&quot;background-color: rgb(248 , 249 , 250)&quot;&gt;举报用户或商品&lt;/span&gt;&lt;/font&gt;" style="edgeLabel;html=1;align=center;verticalAlign=middle;resizable=0;points=[];" vertex="1" connectable="0" parent="GBrsPW4wWktVcQGoqvxC-9">
          <mxGeometry x="-0.1846" y="-2" relative="1" as="geometry">
            <mxPoint x="18" y="-2" as="offset" />
          </mxGeometry>
        </mxCell>
        <mxCell id="GBrsPW4wWktVcQGoqvxC-11" value="卖家" style="shape=umlActor;verticalLabelPosition=bottom;verticalAlign=top;html=1;outlineConnect=0;" vertex="1" parent="1">
          <mxGeometry x="191.5" y="119" width="30" height="60" as="geometry" />
        </mxCell>
        <mxCell id="GBrsPW4wWktVcQGoqvxC-16" value="买家" style="shape=umlActor;verticalLabelPosition=bottom;verticalAlign=top;html=1;outlineConnect=0;" vertex="1" parent="1">
          <mxGeometry x="232.5" y="119" width="30" height="60" as="geometry" />
        </mxCell>
        <mxCell id="GBrsPW4wWktVcQGoqvxC-19" style="edgeStyle=orthogonalEdgeStyle;rounded=0;orthogonalLoop=1;jettySize=auto;html=1;entryX=1.26;entryY=0.718;entryDx=0;entryDy=0;entryPerimeter=0;" edge="1" parent="1" source="GBrsPW4wWktVcQGoqvxC-4" target="GBrsPW4wWktVcQGoqvxC-2">
          <mxGeometry relative="1" as="geometry">
            <Array as="points">
              <mxPoint x="515" y="453" />
              <mxPoint x="515" y="453" />
            </Array>
          </mxGeometry>
        </mxCell>
        <mxCell id="GBrsPW4wWktVcQGoqvxC-20" value="返回审核结果" style="edgeLabel;html=1;align=center;verticalAlign=middle;resizable=0;points=[];" vertex="1" connectable="0" parent="GBrsPW4wWktVcQGoqvxC-19">
          <mxGeometry x="0.194" relative="1" as="geometry">
            <mxPoint x="14" y="-2" as="offset" />
          </mxGeometry>
        </mxCell>
        <mxCell id="GBrsPW4wWktVcQGoqvxC-21" style="edgeStyle=orthogonalEdgeStyle;rounded=0;orthogonalLoop=1;jettySize=auto;html=1;entryX=-0.02;entryY=0.008;entryDx=0;entryDy=0;entryPerimeter=0;" edge="1" parent="1" source="GBrsPW4wWktVcQGoqvxC-2" target="GBrsPW4wWktVcQGoqvxC-6">
          <mxGeometry relative="1" as="geometry">
            <Array as="points">
              <mxPoint x="475" y="329" />
              <mxPoint x="475" y="329" />
            </Array>
          </mxGeometry>
        </mxCell>
        <mxCell id="GBrsPW4wWktVcQGoqvxC-22" value="将举报信息暂存自数据库" style="edgeLabel;html=1;align=center;verticalAlign=middle;resizable=0;points=[];" vertex="1" connectable="0" parent="GBrsPW4wWktVcQGoqvxC-21">
          <mxGeometry x="-0.176" y="-1" relative="1" as="geometry">
            <mxPoint x="28" as="offset" />
          </mxGeometry>
        </mxCell>
        <mxCell id="GBrsPW4wWktVcQGoqvxC-23" style="edgeStyle=orthogonalEdgeStyle;rounded=0;orthogonalLoop=1;jettySize=auto;html=1;entryX=1.18;entryY=0.019;entryDx=0;entryDy=0;entryPerimeter=0;" edge="1" parent="1" source="GBrsPW4wWktVcQGoqvxC-6" target="GBrsPW4wWktVcQGoqvxC-4">
          <mxGeometry relative="1" as="geometry">
            <Array as="points">
              <mxPoint x="653" y="382" />
              <mxPoint x="653" y="382" />
            </Array>
          </mxGeometry>
        </mxCell>
        <mxCell id="GBrsPW4wWktVcQGoqvxC-24" value="返回给审核员" style="edgeLabel;html=1;align=center;verticalAlign=middle;resizable=0;points=[];" vertex="1" connectable="0" parent="GBrsPW4wWktVcQGoqvxC-23">
          <mxGeometry x="0.1795" y="1" relative="1" as="geometry">
            <mxPoint x="12" y="-2" as="offset" />
          </mxGeometry>
        </mxCell>
      </root>
    </mxGraphModel>
  </diagram>
</mxfile>
